<?xml version="1.0" encoding="utf-8" standalone="no"?>
<!DOCTYPE svg PUBLIC "-//W3C//DTD SVG 1.1//EN" "http://www.w3.org/Graphics/SVG/1.1/DTD/svg11.dtd">
<svg width="210mm" height="297mm" viewBox="0 0 210 297" xmlns="http://www.w3.org/2000/svg" xmlns:xlink="http://www.w3.org/1999/xlink" version="1.1" style="stroke:black; fill:none; stroke-width:0.5pt; stroke-linejoin:round; text-anchor:middle" font-family="Helvetica, Arial, FreeSans, Sans, sans, sans-serif">

<g>

<circle cx="55.0" cy="73.5" r="5.0" fill="black" stroke="none" />

<circle cx="55.0" cy="98.5" r="5.0" fill="black" stroke="none" />

<circle cx="55.0" cy="123.5" r="5.0" fill="black" stroke="none" />

<circle cx="55.0" cy="148.5" r="5.0" fill="black" stroke="none" />

<circle cx="55.0" cy="173.5" r="5.0" fill="black" stroke="none" />

<circle cx="55.0" cy="198.5" r="5.0" fill="black" stroke="none" />

<circle cx="55.0" cy="223.5" r="5.0" fill="black" stroke="none" />

<circle cx="80.0" cy="73.5" r="5.0" fill="black" stroke="none" />

<circle cx="80.0" cy="98.5" r="5.0" fill="black" stroke="none" />

<circle cx="80.0" cy="123.5" r="5.0" fill="black" stroke="none" />

<circle cx="80.0" cy="148.5" r="5.0" fill="black" stroke="none" />

<circle cx="80.0" cy="173.5" r="5.0" fill="black" stroke="none" />

<circle cx="80.0" cy="198.5" r="5.0" fill="black" stroke="none" />

<circle cx="80.0" cy="223.5" r="5.0" fill="black" stroke="none" />

<circle cx="105.0" cy="73.5" r="5.0" fill="black" stroke="none" />

<circle cx="105.0" cy="98.5" r="5.0" fill="black" stroke="none" />

<circle cx="105.0" cy="123.5" r="5.0" fill="black" stroke="none" />

<circle cx="105.0" cy="148.5" r="5.0" fill="black" stroke="none" />

<circle cx="105.0" cy="173.5" r="5.0" fill="black" stroke="none" />

<circle cx="105.0" cy="198.5" r="5.0" fill="black" stroke="none" />

<circle cx="105.0" cy="223.5" r="5.0" fill="black" stroke="none" />

<circle cx="130.0" cy="73.5" r="5.0" fill="black" stroke="none" />

<circle cx="130.0" cy="98.5" r="5.0" fill="black" stroke="none" />

<circle cx="130.0" cy="123.5" r="5.0" fill="black" stroke="none" />

<circle cx="130.0" cy="148.5" r="5.0" fill="black" stroke="none" />

<circle cx="130.0" cy="173.5" r="5.0" fill="black" stroke="none" />

<circle cx="130.0" cy="198.5" r="5.0" fill="black" stroke="none" />

<circle cx="130.0" cy="223.5" r="5.0" fill="black" stroke="none" />

<circle cx="155.0" cy="73.5" r="5.0" fill="black" stroke="none" />

<circle cx="155.0" cy="98.5" r="5.0" fill="black" stroke="none" />

<circle cx="155.0" cy="123.5" r="5.0" fill="black" stroke="none" />

<circle cx="155.0" cy="148.5" r="5.0" fill="black" stroke="none" />

<circle cx="155.0" cy="173.5" r="5.0" fill="black" stroke="none" />

<circle cx="155.0" cy="198.5" r="5.0" fill="black" stroke="none" />

<circle cx="155.0" cy="223.5" r="5.0" fill="black" stroke="none" />

</g>

</svg>

